HIERARCHY
ROOT Hips
{
    OFFSET 0.000000 0.000000 0.000000
    CHANNELS 6 Xposition Yposition Zposition Zrotation Xrotation Yrotation
    JOINT Spine
    {
        OFFSET -0.000000 14.517291 0.000000
        CHANNELS 3 Zrotation Xrotation Yrotation
        JOINT Spine1
        {
            OFFSET -0.000000 37.558300 0.000000
            CHANNELS 3 Zrotation Xrotation Yrotation
            JOINT Neck
            {
                OFFSET -0.000000 37.404057 3.400369
                CHANNELS 3 Zrotation Xrotation Yrotation
                JOINT Head
                {
                    OFFSET -0.000000 24.785618 -3.540803
                    CHANNELS 3 Zrotation Xrotation Yrotation
                    End Site
                    {
                        OFFSET -0.000000 35.408028 0.000000
                    }
                }
            }
            JOINT LeftShoulder
            {
                OFFSET 6.992933 33.973492 -0.192664
                CHANNELS 3 Zrotation Xrotation Yrotation
                JOINT LeftArm
                {
                    OFFSET 21.527611 0.000000 0.000000
                    CHANNELS 3 Zrotation Xrotation Yrotation
                    JOINT LeftForeArm
                    {
                        OFFSET 56.353916 0.000000 0.000000
                        CHANNELS 3 Zrotation Xrotation Yrotation
                        JOINT LeftHand
                        {
                            OFFSET 47.774071 0.000000 0.000000
                            CHANNELS 3 Zrotation Xrotation Yrotation
                            End Site
                            {
                                OFFSET 26.556021 0.000000 0.000000
                            }
                        }
                    }
                }
            }
            JOINT RightShoulder
            {
                OFFSET -7.065357 33.973492 -0.192664
                CHANNELS 3 Zrotation Xrotation Yrotation
                JOINT RightArm
                {
                    OFFSET -21.527611 0.000000 0.000000
                    CHANNELS 3 Zrotation Xrotation Yrotation
                    JOINT RightForeArm
                    {
                        OFFSET -56.353916 0.000000 0.000000
                        CHANNELS 3 Zrotation Xrotation Yrotation
                        JOINT RightHand
                        {
                            OFFSET -47.774071 0.000000 0.000000
                            CHANNELS 3 Zrotation Xrotation Yrotation
                            End Site
                            {
                                OFFSET -26.556021 0.000000 0.000000
                            }
                        }
                    }
                }
            }
        }
    }
    JOINT LeftUpLeg
    {
        OFFSET 17.704014 0.000000 0.000000
        CHANNELS 3 Zrotation Xrotation Yrotation
        JOINT LeftLeg
        {
            OFFSET -0.000000 -81.181816 0.000000
            CHANNELS 3 Zrotation Xrotation Yrotation
            JOINT LeftFoot
            {
                OFFSET -0.000000 -62.821102 0.000000
                CHANNELS 3 Zrotation Xrotation Yrotation
                JOINT LeftToeBase
                {
                    OFFSET -0.000000 -11.507608 26.556021
                    CHANNELS 3 Zrotation Xrotation Yrotation
                    End Site
                    {
                        OFFSET -0.000000 0.000000 7.081605
                    }
                }
            }
        }
    }
    JOINT RightUpLeg
    {
        OFFSET -17.704014 0.000000 0.000000
        CHANNELS 3 Zrotation Xrotation Yrotation
        JOINT RightLeg
        {
            OFFSET -0.000000 -81.181816 0.000000
            CHANNELS 3 Zrotation Xrotation Yrotation
            JOINT RightFoot
            {
                OFFSET -0.000000 -62.821102 0.000000
                CHANNELS 3 Zrotation Xrotation Yrotation
                JOINT RightToeBase
                {
                    OFFSET -0.000000 -11.507608 26.556021
                    CHANNELS 3 Zrotation Xrotation Yrotation
                    End Site
                    {
                        OFFSET -0.000000 0.000000 7.081605
                    }
                }
            }
        }
    }
}
MOTION
Frames:    5
Frame Time:    0.008333
-2.348469    157.293655    -29.736809    0.993935    -4.417071    -17.724586    0.251627    -1.908574    -2.113596    -2.329309    6.610442    -0.571855    11.404248    -3.455416    8.962120    -1.765182    3.999234    7.087591    4.918048    10.323856    -19.061796    -33.010895    23.008244    -80.671692    78.375534    -52.722229    -8.290041    -3.530984    -47.989388    -20.798477    -1.288828    7.602242    -2.876122    40.011475    12.947045    63.899548    -4.515657    -18.134193    111.898972    4.098966    -11.270237    11.371922    10.206618    -13.725758    -5.998490    -8.487830    5.055784    3.896064    -7.860024    10.590702    20.373276    0.000000    0.000000    0.000000    -8.119585    11.238214    -9.641532    5.921307    20.426851    -0.860656    1.387147    -24.356272    -24.866999    0.000000    0.000000    0.000000    
-2.347780    157.289749    -29.735649    0.997346    -4.423843    -17.724445    0.263592    -1.905241    -2.115143    -2.355433    6.620916    -0.570716    11.392400    -3.483230    8.955649    -1.734844    4.019106    7.083747    4.917056    10.310932    -19.052704    -33.003468    23.017967    -80.670013    78.369682    -52.703400    -8.300980    -3.549600    -47.960274    -20.820608    -1.284947    7.591249    -2.871938    39.999870    12.965065    63.911709    -4.510905    -18.149151    111.891747    4.086666    -11.294461    11.368791    10.205376    -13.727045    -6.012047    -8.500662    5.067406    3.904216    -7.859606    10.580424    20.375263    0.000000    0.000000    0.000000    -8.136972    11.240249    -9.684433    5.920419    20.447954    -0.826815    1.395627    -24.368546    -24.837435    0.000000    0.000000    0.000000    
-2.347257    157.287628    -29.731607    1.002236    -4.425642    -17.723173    0.262543    -1.910209    -2.112731    -2.361139    6.628638    -0.569365    11.386401    -3.487528    8.952259    -1.722286    4.015917    7.082166    4.917286    10.307157    -19.055609    -33.123737    22.956480    -80.611977    78.120033    -52.756149    -8.542723    -3.567807    -47.903992    -20.820461    -1.285652    7.586517    -2.876952    39.992199    12.973563    63.925808    -4.501673    -18.152624    111.881706    4.047759    -11.315948    11.383459    10.199121    -13.730678    -6.006153    -8.505278    5.079185    3.916806    -7.843857    10.574218    20.353088    0.000000    0.000000    0.000000    -8.149457    11.239545    -9.724189    5.918543    20.457598    -0.855556    1.426484    -24.373329    -24.757353    0.000000    0.000000    0.000000    
-2.346965    157.284927    -29.724482    1.000109    -4.433855    -17.729235    0.267095    -1.904144    -2.100904    -2.364483    6.625903    -0.565391    11.392293    -3.500369    8.945151    -1.725748    4.045149    7.072488    4.909046    10.311726    -19.072615    -33.024616    23.025656    -80.657661    78.350990    -52.698208    -8.325355    -3.632756    -47.931847    -20.843348    -1.286752    7.587912    -2.878887    39.987671    12.981657    63.921852    -4.510663    -18.158556    111.862114    4.057076    -11.310721    11.382072    10.204626    -13.716728    -6.024463    -8.517716    5.074029    3.897747    -7.837905    10.563157    20.386497    0.000000    0.000000    0.000000    -8.160039    11.248336    -9.725091    5.930577    20.463715    -0.876759    1.426064    -24.374079    -24.727629    0.000000    0.000000    0.000000    
-2.347558    157.283966    -29.717731    1.002755    -4.439898    -17.733929    0.270713    -1.918671    -2.096687    -2.382645    6.658117    -0.562221    11.392087    -3.505059    8.941660    -1.713593    4.027226    7.069437    4.923121    10.303169    -19.059378    -33.166077    22.958956    -80.619049    78.077820    -52.746494    -8.576234    -3.598556    -47.874298    -20.831902    -1.280379    7.582420    -2.875168    39.973442    12.985423    63.929829    -4.525761    -18.170565    111.843727    4.019767    -11.308028    11.360779    10.202248    -13.709793    -6.029681    -8.524619    5.074858    3.926636    -7.824088    10.561772    20.367542    0.000000    0.000000    0.000000    -8.170216    11.251282    -9.768053    5.914507    20.479328    -0.872508    1.472258    -24.379211    -24.657984    0.000000    0.000000    0.000000    
